<mxfile host="app.diagrams.net" modified="2023-08-15T13:45:04.505Z" agent="Mozilla/5.0 (Windows NT 10.0; Win64; x64) AppleWebKit/537.36 (KHTML, like Gecko) Chrome/115.0.0.0 Safari/537.36" etag="VIwSGRabFfHM49bhx-VC" version="21.6.7" type="device">
  <diagram id="C5RBs43oDa-KdzZeNtuy" name="Page-1">
    <mxGraphModel dx="1720" dy="1570" grid="1" gridSize="10" guides="1" tooltips="1" connect="1" arrows="1" fold="1" page="1" pageScale="1" pageWidth="827" pageHeight="1169" math="0" shadow="0">
      <root>
        <mxCell id="WIyWlLk6GJQsqaUBKTNV-0" />
        <mxCell id="WIyWlLk6GJQsqaUBKTNV-1" parent="WIyWlLk6GJQsqaUBKTNV-0" />
        <mxCell id="4Tztraf-FEUjhelAaTud-88" value="&lt;font style=&quot;font-size: 48px;&quot;&gt;SCHEDULER FLOWCHART&lt;/font&gt;" style="text;html=1;strokeColor=none;fillColor=none;align=center;verticalAlign=middle;whiteSpace=wrap;rounded=0;" parent="WIyWlLk6GJQsqaUBKTNV-1" vertex="1">
          <mxGeometry x="62.5" y="2750" width="675" height="140" as="geometry" />
        </mxCell>
        <mxCell id="DTBsFPUASoY4-rGtD09z-0" value="" style="group" parent="WIyWlLk6GJQsqaUBKTNV-1" vertex="1" connectable="0">
          <mxGeometry x="202.5" y="2880" width="587.495" height="1660" as="geometry" />
        </mxCell>
        <mxCell id="4Tztraf-FEUjhelAaTud-89" value="&lt;font style=&quot;font-size: 36px;&quot;&gt;START&lt;/font&gt;" style="ellipse;whiteSpace=wrap;html=1;" parent="DTBsFPUASoY4-rGtD09z-0" vertex="1">
          <mxGeometry x="98.25" width="175" height="110" as="geometry" />
        </mxCell>
        <mxCell id="4Tztraf-FEUjhelAaTud-90" value="&lt;font style=&quot;font-size: 24px;&quot;&gt;Compare current Datetime&amp;nbsp; and Reminder&amp;nbsp; Datetime&lt;/font&gt;" style="rounded=1;whiteSpace=wrap;html=1;" parent="DTBsFPUASoY4-rGtD09z-0" vertex="1">
          <mxGeometry x="98.25" y="280" width="238.5" height="150" as="geometry" />
        </mxCell>
        <mxCell id="4Tztraf-FEUjhelAaTud-95" style="edgeStyle=orthogonalEdgeStyle;rounded=0;orthogonalLoop=1;jettySize=auto;html=1;exitX=0.5;exitY=1;exitDx=0;exitDy=0;" parent="DTBsFPUASoY4-rGtD09z-0" source="4Tztraf-FEUjhelAaTud-89" target="4Tztraf-FEUjhelAaTud-90" edge="1">
          <mxGeometry relative="1" as="geometry" />
        </mxCell>
        <mxCell id="4Tztraf-FEUjhelAaTud-91" value="&lt;font style=&quot;font-size: 36px;&quot;&gt;Is greater&lt;/font&gt;" style="rhombus;whiteSpace=wrap;html=1;" parent="DTBsFPUASoY4-rGtD09z-0" vertex="1">
          <mxGeometry x="120.63" y="500" width="193.75" height="190" as="geometry" />
        </mxCell>
        <mxCell id="4Tztraf-FEUjhelAaTud-94" style="edgeStyle=orthogonalEdgeStyle;rounded=0;orthogonalLoop=1;jettySize=auto;html=1;exitX=0.5;exitY=1;exitDx=0;exitDy=0;entryX=0.5;entryY=0;entryDx=0;entryDy=0;" parent="DTBsFPUASoY4-rGtD09z-0" source="4Tztraf-FEUjhelAaTud-90" target="4Tztraf-FEUjhelAaTud-91" edge="1">
          <mxGeometry relative="1" as="geometry" />
        </mxCell>
        <mxCell id="4Tztraf-FEUjhelAaTud-92" value="&lt;font style=&quot;font-size: 36px;&quot;&gt;Send Email/SMS&lt;/font&gt;" style="rounded=1;whiteSpace=wrap;html=1;" parent="DTBsFPUASoY4-rGtD09z-0" vertex="1">
          <mxGeometry x="70" y="840" width="295" height="130" as="geometry" />
        </mxCell>
        <mxCell id="4Tztraf-FEUjhelAaTud-93" style="edgeStyle=orthogonalEdgeStyle;rounded=0;orthogonalLoop=1;jettySize=auto;html=1;entryX=0.5;entryY=0;entryDx=0;entryDy=0;" parent="DTBsFPUASoY4-rGtD09z-0" source="4Tztraf-FEUjhelAaTud-91" target="4Tztraf-FEUjhelAaTud-92" edge="1">
          <mxGeometry relative="1" as="geometry" />
        </mxCell>
        <mxCell id="4Tztraf-FEUjhelAaTud-96" value="&lt;font style=&quot;font-size: 18px;&quot;&gt;YES&lt;/font&gt;" style="text;html=1;align=center;verticalAlign=middle;resizable=0;points=[];autosize=1;strokeColor=none;fillColor=none;" parent="DTBsFPUASoY4-rGtD09z-0" vertex="1">
          <mxGeometry x="217.5" y="713" width="60" height="40" as="geometry" />
        </mxCell>
        <mxCell id="4Tztraf-FEUjhelAaTud-97" value="&lt;font style=&quot;font-size: 36px;&quot;&gt;Update Appointment details&lt;br&gt;&lt;/font&gt;" style="rounded=1;whiteSpace=wrap;html=1;" parent="DTBsFPUASoY4-rGtD09z-0" vertex="1">
          <mxGeometry x="17.5" y="1170" width="405" height="120" as="geometry" />
        </mxCell>
        <mxCell id="4Tztraf-FEUjhelAaTud-98" style="edgeStyle=orthogonalEdgeStyle;rounded=0;orthogonalLoop=1;jettySize=auto;html=1;exitX=0.5;exitY=1;exitDx=0;exitDy=0;" parent="DTBsFPUASoY4-rGtD09z-0" source="4Tztraf-FEUjhelAaTud-92" target="4Tztraf-FEUjhelAaTud-97" edge="1">
          <mxGeometry relative="1" as="geometry" />
        </mxCell>
        <mxCell id="4Tztraf-FEUjhelAaTud-99" value="&lt;font style=&quot;font-size: 36px;&quot;&gt;STOP&lt;/font&gt;" style="ellipse;whiteSpace=wrap;html=1;" parent="DTBsFPUASoY4-rGtD09z-0" vertex="1">
          <mxGeometry y="1510" width="440" height="150" as="geometry" />
        </mxCell>
        <mxCell id="4Tztraf-FEUjhelAaTud-100" style="edgeStyle=orthogonalEdgeStyle;rounded=0;orthogonalLoop=1;jettySize=auto;html=1;" parent="DTBsFPUASoY4-rGtD09z-0" source="4Tztraf-FEUjhelAaTud-97" target="4Tztraf-FEUjhelAaTud-99" edge="1">
          <mxGeometry relative="1" as="geometry" />
        </mxCell>
        <mxCell id="4Tztraf-FEUjhelAaTud-101" value="&lt;font style=&quot;font-size: 18px;&quot;&gt;NO&lt;/font&gt;" style="text;html=1;align=center;verticalAlign=middle;resizable=0;points=[];autosize=1;strokeColor=none;fillColor=none;" parent="DTBsFPUASoY4-rGtD09z-0" vertex="1">
          <mxGeometry x="322.5" y="533" width="50" height="40" as="geometry" />
        </mxCell>
        <mxCell id="4Tztraf-FEUjhelAaTud-103" value="" style="shape=partialRectangle;whiteSpace=wrap;html=1;bottom=1;right=1;left=1;top=0;fillColor=none;routingCenterX=-0.5;rotation=-90;" parent="DTBsFPUASoY4-rGtD09z-0" vertex="1">
          <mxGeometry x="407.62" y="420.1199999999999" width="239.75" height="120" as="geometry" />
        </mxCell>
        <mxCell id="4Tztraf-FEUjhelAaTud-110" style="rounded=0;orthogonalLoop=1;jettySize=auto;html=1;entryX=0;entryY=0;entryDx=0;entryDy=0;" parent="DTBsFPUASoY4-rGtD09z-0" source="4Tztraf-FEUjhelAaTud-91" target="4Tztraf-FEUjhelAaTud-103" edge="1">
          <mxGeometry relative="1" as="geometry" />
        </mxCell>
        <mxCell id="4Tztraf-FEUjhelAaTud-105" value="" style="endArrow=classic;html=1;rounded=0;entryX=1;entryY=0.5;entryDx=0;entryDy=0;exitX=1;exitY=0;exitDx=0;exitDy=0;" parent="DTBsFPUASoY4-rGtD09z-0" source="4Tztraf-FEUjhelAaTud-103" target="4Tztraf-FEUjhelAaTud-90" edge="1">
          <mxGeometry width="50" height="50" relative="1" as="geometry">
            <mxPoint x="-132.5" y="530" as="sourcePoint" />
            <mxPoint x="-82.5" y="480" as="targetPoint" />
          </mxGeometry>
        </mxCell>
        <mxCell id="DTBsFPUASoY4-rGtD09z-1" value="" style="group" parent="WIyWlLk6GJQsqaUBKTNV-1" vertex="1" connectable="0">
          <mxGeometry x="-320" y="-250" width="1320" height="2690" as="geometry" />
        </mxCell>
        <mxCell id="4Tztraf-FEUjhelAaTud-0" value="&lt;font style=&quot;font-size: 24px;&quot;&gt;START&lt;/font&gt;" style="ellipse;whiteSpace=wrap;html=1;" parent="DTBsFPUASoY4-rGtD09z-1" vertex="1">
          <mxGeometry x="660" y="320" width="120" height="80" as="geometry" />
        </mxCell>
        <mxCell id="4Tztraf-FEUjhelAaTud-1" value="&lt;font style=&quot;font-size: 24px;&quot; face=&quot;Lucida Console&quot;&gt;LOGIN&lt;/font&gt;" style="rounded=1;whiteSpace=wrap;html=1;" parent="DTBsFPUASoY4-rGtD09z-1" vertex="1">
          <mxGeometry x="660" y="530" width="120" height="60" as="geometry" />
        </mxCell>
        <mxCell id="4Tztraf-FEUjhelAaTud-7" style="edgeStyle=orthogonalEdgeStyle;rounded=0;orthogonalLoop=1;jettySize=auto;html=1;entryX=0.5;entryY=0;entryDx=0;entryDy=0;" parent="DTBsFPUASoY4-rGtD09z-1" source="4Tztraf-FEUjhelAaTud-0" target="4Tztraf-FEUjhelAaTud-1" edge="1">
          <mxGeometry relative="1" as="geometry" />
        </mxCell>
        <mxCell id="4Tztraf-FEUjhelAaTud-2" value="&lt;font face=&quot;Lucida Console&quot; style=&quot;font-size: 24px;&quot;&gt;User Found&lt;/font&gt;" style="rhombus;whiteSpace=wrap;html=1;" parent="DTBsFPUASoY4-rGtD09z-1" vertex="1">
          <mxGeometry x="615" y="630" width="210" height="190" as="geometry" />
        </mxCell>
        <mxCell id="4Tztraf-FEUjhelAaTud-6" style="edgeStyle=orthogonalEdgeStyle;rounded=0;orthogonalLoop=1;jettySize=auto;html=1;entryX=0.5;entryY=0;entryDx=0;entryDy=0;" parent="DTBsFPUASoY4-rGtD09z-1" source="4Tztraf-FEUjhelAaTud-1" target="4Tztraf-FEUjhelAaTud-2" edge="1">
          <mxGeometry relative="1" as="geometry" />
        </mxCell>
        <mxCell id="4Tztraf-FEUjhelAaTud-3" value="&lt;font face=&quot;Tahoma&quot; style=&quot;font-size: 24px;&quot;&gt;User_Type&lt;/font&gt;" style="rhombus;whiteSpace=wrap;html=1;" parent="DTBsFPUASoY4-rGtD09z-1" vertex="1">
          <mxGeometry x="650" y="870" width="140" height="180" as="geometry" />
        </mxCell>
        <mxCell id="4Tztraf-FEUjhelAaTud-5" style="edgeStyle=orthogonalEdgeStyle;rounded=0;orthogonalLoop=1;jettySize=auto;html=1;entryX=0.5;entryY=0;entryDx=0;entryDy=0;" parent="DTBsFPUASoY4-rGtD09z-1" source="4Tztraf-FEUjhelAaTud-2" target="4Tztraf-FEUjhelAaTud-3" edge="1">
          <mxGeometry relative="1" as="geometry" />
        </mxCell>
        <mxCell id="4Tztraf-FEUjhelAaTud-9" value="" style="endArrow=none;html=1;rounded=0;" parent="DTBsFPUASoY4-rGtD09z-1" edge="1">
          <mxGeometry width="50" height="50" relative="1" as="geometry">
            <mxPoint x="400" y="1090" as="sourcePoint" />
            <mxPoint x="1040" y="1090" as="targetPoint" />
          </mxGeometry>
        </mxCell>
        <mxCell id="4Tztraf-FEUjhelAaTud-11" value="" style="endArrow=classic;html=1;rounded=0;" parent="DTBsFPUASoY4-rGtD09z-1" target="4Tztraf-FEUjhelAaTud-14" edge="1">
          <mxGeometry width="50" height="50" relative="1" as="geometry">
            <mxPoint x="400" y="1090" as="sourcePoint" />
            <mxPoint x="400" y="1170" as="targetPoint" />
          </mxGeometry>
        </mxCell>
        <mxCell id="4Tztraf-FEUjhelAaTud-12" value="" style="endArrow=classic;html=1;rounded=0;" parent="DTBsFPUASoY4-rGtD09z-1" target="4Tztraf-FEUjhelAaTud-15" edge="1">
          <mxGeometry width="50" height="50" relative="1" as="geometry">
            <mxPoint x="1040" y="1090" as="sourcePoint" />
            <mxPoint x="1040" y="1170" as="targetPoint" />
          </mxGeometry>
        </mxCell>
        <mxCell id="4Tztraf-FEUjhelAaTud-13" value="&lt;h2&gt;Client&lt;/h2&gt;" style="rounded=1;whiteSpace=wrap;html=1;" parent="DTBsFPUASoY4-rGtD09z-1" vertex="1">
          <mxGeometry x="660" y="1160" width="120" height="60" as="geometry" />
        </mxCell>
        <mxCell id="4Tztraf-FEUjhelAaTud-4" style="edgeStyle=orthogonalEdgeStyle;rounded=0;orthogonalLoop=1;jettySize=auto;html=1;" parent="DTBsFPUASoY4-rGtD09z-1" source="4Tztraf-FEUjhelAaTud-3" target="4Tztraf-FEUjhelAaTud-13" edge="1">
          <mxGeometry relative="1" as="geometry">
            <mxPoint x="720" y="1170" as="targetPoint" />
          </mxGeometry>
        </mxCell>
        <mxCell id="4Tztraf-FEUjhelAaTud-14" value="&lt;h2&gt;&lt;font size=&quot;3&quot; face=&quot;Verdana&quot;&gt;Proffesional&lt;/font&gt;&lt;/h2&gt;" style="rounded=1;whiteSpace=wrap;html=1;" parent="DTBsFPUASoY4-rGtD09z-1" vertex="1">
          <mxGeometry x="340" y="1140" width="120" height="60" as="geometry" />
        </mxCell>
        <mxCell id="4Tztraf-FEUjhelAaTud-15" value="&lt;h2&gt;&lt;font face=&quot;Verdana&quot;&gt;Admin&lt;/font&gt;&lt;/h2&gt;" style="rounded=1;whiteSpace=wrap;html=1;" parent="DTBsFPUASoY4-rGtD09z-1" vertex="1">
          <mxGeometry x="980" y="1140" width="120" height="60" as="geometry" />
        </mxCell>
        <mxCell id="4Tztraf-FEUjhelAaTud-16" value="&lt;font style=&quot;font-size: 18px;&quot; face=&quot;Lucida Console&quot;&gt;Set schedule&lt;/font&gt;" style="rounded=1;whiteSpace=wrap;html=1;" parent="DTBsFPUASoY4-rGtD09z-1" vertex="1">
          <mxGeometry x="340" y="1280" width="120" height="60" as="geometry" />
        </mxCell>
        <mxCell id="4Tztraf-FEUjhelAaTud-17" value="&lt;font style=&quot;font-size: 18px;&quot; face=&quot;Lucida Console&quot;&gt;Set working hours&lt;/font&gt;" style="rounded=1;whiteSpace=wrap;html=1;" parent="DTBsFPUASoY4-rGtD09z-1" vertex="1">
          <mxGeometry x="340" y="1410" width="120" height="60" as="geometry" />
        </mxCell>
        <mxCell id="4Tztraf-FEUjhelAaTud-22" value="&lt;font style=&quot;font-size: 18px;&quot; face=&quot;Lucida Console&quot;&gt;Set Availabilty&lt;/font&gt;" style="rounded=1;whiteSpace=wrap;html=1;" parent="DTBsFPUASoY4-rGtD09z-1" vertex="1">
          <mxGeometry x="340" y="1570" width="120" height="60" as="geometry" />
        </mxCell>
        <mxCell id="4Tztraf-FEUjhelAaTud-23" value="&lt;font face=&quot;Lucida Console&quot; style=&quot;font-size: 18px;&quot;&gt;View Appointments&lt;/font&gt;" style="rounded=1;whiteSpace=wrap;html=1;" parent="DTBsFPUASoY4-rGtD09z-1" vertex="1">
          <mxGeometry x="340" y="1740" width="140" height="60" as="geometry" />
        </mxCell>
        <mxCell id="4Tztraf-FEUjhelAaTud-24" value="&lt;font face=&quot;Lucida Console&quot; style=&quot;font-size: 18px;&quot;&gt;Accept/Reject Appointment&lt;/font&gt;" style="rounded=1;whiteSpace=wrap;html=1;" parent="DTBsFPUASoY4-rGtD09z-1" vertex="1">
          <mxGeometry x="320" y="1860" width="160" height="120" as="geometry" />
        </mxCell>
        <mxCell id="4Tztraf-FEUjhelAaTud-25" value="&lt;font style=&quot;font-size: 24px;&quot;&gt;Accept/Reject Proffesionals&lt;/font&gt;" style="rounded=1;whiteSpace=wrap;html=1;" parent="DTBsFPUASoY4-rGtD09z-1" vertex="1">
          <mxGeometry x="940" y="1280" width="220" height="80" as="geometry" />
        </mxCell>
        <mxCell id="4Tztraf-FEUjhelAaTud-26" value="&lt;font face=&quot;Lucida Console&quot; style=&quot;font-size: 24px;&quot;&gt;Manage client /Proffesionals&lt;/font&gt;" style="rounded=1;whiteSpace=wrap;html=1;" parent="DTBsFPUASoY4-rGtD09z-1" vertex="1">
          <mxGeometry x="950" y="1419" width="210" height="100" as="geometry" />
        </mxCell>
        <mxCell id="4Tztraf-FEUjhelAaTud-27" value="&lt;font style=&quot;font-size: 24px;&quot;&gt;STOP&lt;/font&gt;" style="ellipse;whiteSpace=wrap;html=1;" parent="DTBsFPUASoY4-rGtD09z-1" vertex="1">
          <mxGeometry x="660" y="2610" width="120" height="80" as="geometry" />
        </mxCell>
        <mxCell id="4Tztraf-FEUjhelAaTud-28" value="" style="strokeWidth=2;html=1;shape=mxgraph.flowchart.annotation_1;align=left;pointerEvents=1;" parent="DTBsFPUASoY4-rGtD09z-1" vertex="1">
          <mxGeometry x="180" y="1170" width="160" height="1480" as="geometry" />
        </mxCell>
        <mxCell id="4Tztraf-FEUjhelAaTud-29" value="" style="endArrow=classic;html=1;rounded=0;exitX=1;exitY=1;exitDx=0;exitDy=0;exitPerimeter=0;entryX=0;entryY=0.5;entryDx=0;entryDy=0;" parent="DTBsFPUASoY4-rGtD09z-1" source="4Tztraf-FEUjhelAaTud-28" target="4Tztraf-FEUjhelAaTud-27" edge="1">
          <mxGeometry width="50" height="50" relative="1" as="geometry">
            <mxPoint x="870" y="2280" as="sourcePoint" />
            <mxPoint x="920" y="2230" as="targetPoint" />
          </mxGeometry>
        </mxCell>
        <mxCell id="4Tztraf-FEUjhelAaTud-30" value="" style="strokeWidth=2;html=1;shape=mxgraph.flowchart.annotation_1;align=left;pointerEvents=1;rotation=-180;" parent="DTBsFPUASoY4-rGtD09z-1" vertex="1">
          <mxGeometry x="1100" y="1170" width="150" height="1480" as="geometry" />
        </mxCell>
        <mxCell id="4Tztraf-FEUjhelAaTud-32" value="" style="endArrow=classic;html=1;rounded=0;exitX=1;exitY=0;exitDx=0;exitDy=0;exitPerimeter=0;entryX=1;entryY=0.5;entryDx=0;entryDy=0;" parent="DTBsFPUASoY4-rGtD09z-1" source="4Tztraf-FEUjhelAaTud-30" target="4Tztraf-FEUjhelAaTud-27" edge="1">
          <mxGeometry width="50" height="50" relative="1" as="geometry">
            <mxPoint x="870" y="2200" as="sourcePoint" />
            <mxPoint x="920" y="2150" as="targetPoint" />
          </mxGeometry>
        </mxCell>
        <mxCell id="4Tztraf-FEUjhelAaTud-36" value="" style="endArrow=none;html=1;rounded=0;" parent="DTBsFPUASoY4-rGtD09z-1" target="4Tztraf-FEUjhelAaTud-16" edge="1">
          <mxGeometry width="50" height="50" relative="1" as="geometry">
            <mxPoint x="180" y="1310" as="sourcePoint" />
            <mxPoint x="490" y="1240" as="targetPoint" />
          </mxGeometry>
        </mxCell>
        <mxCell id="4Tztraf-FEUjhelAaTud-37" value="" style="endArrow=none;html=1;rounded=0;entryX=0.003;entryY=0.183;entryDx=0;entryDy=0;entryPerimeter=0;" parent="DTBsFPUASoY4-rGtD09z-1" source="4Tztraf-FEUjhelAaTud-17" target="4Tztraf-FEUjhelAaTud-28" edge="1">
          <mxGeometry width="50" height="50" relative="1" as="geometry">
            <mxPoint x="340" y="1449" as="sourcePoint" />
            <mxPoint x="490" y="1520" as="targetPoint" />
          </mxGeometry>
        </mxCell>
        <mxCell id="4Tztraf-FEUjhelAaTud-38" value="" style="endArrow=none;html=1;rounded=0;exitX=0.003;exitY=0.284;exitDx=0;exitDy=0;exitPerimeter=0;" parent="DTBsFPUASoY4-rGtD09z-1" source="4Tztraf-FEUjhelAaTud-28" target="4Tztraf-FEUjhelAaTud-22" edge="1">
          <mxGeometry width="50" height="50" relative="1" as="geometry">
            <mxPoint x="730" y="1660" as="sourcePoint" />
            <mxPoint x="780" y="1610" as="targetPoint" />
          </mxGeometry>
        </mxCell>
        <mxCell id="4Tztraf-FEUjhelAaTud-39" value="" style="endArrow=none;html=1;rounded=0;exitX=-0.01;exitY=0.406;exitDx=0;exitDy=0;exitPerimeter=0;" parent="DTBsFPUASoY4-rGtD09z-1" source="4Tztraf-FEUjhelAaTud-28" target="4Tztraf-FEUjhelAaTud-23" edge="1">
          <mxGeometry width="50" height="50" relative="1" as="geometry">
            <mxPoint x="730" y="1760" as="sourcePoint" />
            <mxPoint x="780" y="1710" as="targetPoint" />
          </mxGeometry>
        </mxCell>
        <mxCell id="4Tztraf-FEUjhelAaTud-41" value="" style="endArrow=none;html=1;rounded=0;exitX=-0.024;exitY=0.512;exitDx=0;exitDy=0;exitPerimeter=0;" parent="DTBsFPUASoY4-rGtD09z-1" source="4Tztraf-FEUjhelAaTud-28" target="4Tztraf-FEUjhelAaTud-24" edge="1">
          <mxGeometry width="50" height="50" relative="1" as="geometry">
            <mxPoint x="730" y="2220" as="sourcePoint" />
            <mxPoint x="780" y="2170" as="targetPoint" />
          </mxGeometry>
        </mxCell>
        <mxCell id="4Tztraf-FEUjhelAaTud-42" value="" style="endArrow=none;html=1;rounded=0;entryX=0.006;entryY=0.798;entryDx=0;entryDy=0;entryPerimeter=0;exitX=1;exitY=0.5;exitDx=0;exitDy=0;" parent="DTBsFPUASoY4-rGtD09z-1" source="4Tztraf-FEUjhelAaTud-26" target="4Tztraf-FEUjhelAaTud-30" edge="1">
          <mxGeometry width="50" height="50" relative="1" as="geometry">
            <mxPoint x="1100" y="1461" as="sourcePoint" />
            <mxPoint x="780" y="1550" as="targetPoint" />
          </mxGeometry>
        </mxCell>
        <mxCell id="4Tztraf-FEUjhelAaTud-44" value="" style="endArrow=none;html=1;rounded=0;exitX=-0.003;exitY=0.894;exitDx=0;exitDy=0;exitPerimeter=0;" parent="DTBsFPUASoY4-rGtD09z-1" source="4Tztraf-FEUjhelAaTud-30" target="4Tztraf-FEUjhelAaTud-25" edge="1">
          <mxGeometry width="50" height="50" relative="1" as="geometry">
            <mxPoint x="730" y="1600" as="sourcePoint" />
            <mxPoint x="780" y="1550" as="targetPoint" />
          </mxGeometry>
        </mxCell>
        <mxCell id="4Tztraf-FEUjhelAaTud-45" value="&lt;font face=&quot;Lucida Console&quot; style=&quot;font-size: 18px;&quot;&gt;Select category&lt;/font&gt;" style="rounded=1;whiteSpace=wrap;html=1;" parent="DTBsFPUASoY4-rGtD09z-1" vertex="1">
          <mxGeometry x="660" y="1290" width="120" height="60" as="geometry" />
        </mxCell>
        <mxCell id="4Tztraf-FEUjhelAaTud-56" style="edgeStyle=orthogonalEdgeStyle;rounded=0;orthogonalLoop=1;jettySize=auto;html=1;entryX=0.5;entryY=0;entryDx=0;entryDy=0;" parent="DTBsFPUASoY4-rGtD09z-1" source="4Tztraf-FEUjhelAaTud-13" target="4Tztraf-FEUjhelAaTud-45" edge="1">
          <mxGeometry relative="1" as="geometry" />
        </mxCell>
        <mxCell id="4Tztraf-FEUjhelAaTud-46" value="&lt;font face=&quot;Lucida Console&quot; style=&quot;font-size: 18px;&quot;&gt;search proffesional&lt;/font&gt;" style="rounded=1;whiteSpace=wrap;html=1;" parent="DTBsFPUASoY4-rGtD09z-1" vertex="1">
          <mxGeometry x="650" y="1460" width="140" height="80" as="geometry" />
        </mxCell>
        <mxCell id="4Tztraf-FEUjhelAaTud-57" style="edgeStyle=orthogonalEdgeStyle;rounded=0;orthogonalLoop=1;jettySize=auto;html=1;entryX=0.5;entryY=0;entryDx=0;entryDy=0;" parent="DTBsFPUASoY4-rGtD09z-1" source="4Tztraf-FEUjhelAaTud-45" target="4Tztraf-FEUjhelAaTud-46" edge="1">
          <mxGeometry relative="1" as="geometry" />
        </mxCell>
        <mxCell id="4Tztraf-FEUjhelAaTud-47" value="&lt;font style=&quot;font-size: 24px;&quot;&gt;select services&lt;/font&gt;" style="rounded=1;whiteSpace=wrap;html=1;" parent="DTBsFPUASoY4-rGtD09z-1" vertex="1">
          <mxGeometry x="660" y="1650" width="120" height="60" as="geometry" />
        </mxCell>
        <mxCell id="4Tztraf-FEUjhelAaTud-58" style="edgeStyle=orthogonalEdgeStyle;rounded=0;orthogonalLoop=1;jettySize=auto;html=1;entryX=0.5;entryY=0;entryDx=0;entryDy=0;" parent="DTBsFPUASoY4-rGtD09z-1" source="4Tztraf-FEUjhelAaTud-46" target="4Tztraf-FEUjhelAaTud-47" edge="1">
          <mxGeometry relative="1" as="geometry" />
        </mxCell>
        <mxCell id="4Tztraf-FEUjhelAaTud-48" value="&lt;font style=&quot;font-size: 24px;&quot;&gt;Choose time slot&lt;/font&gt;" style="rounded=1;whiteSpace=wrap;html=1;" parent="DTBsFPUASoY4-rGtD09z-1" vertex="1">
          <mxGeometry x="660" y="1870" width="120" height="60" as="geometry" />
        </mxCell>
        <mxCell id="4Tztraf-FEUjhelAaTud-59" style="edgeStyle=orthogonalEdgeStyle;rounded=0;orthogonalLoop=1;jettySize=auto;html=1;entryX=0.5;entryY=0;entryDx=0;entryDy=0;" parent="DTBsFPUASoY4-rGtD09z-1" source="4Tztraf-FEUjhelAaTud-47" target="4Tztraf-FEUjhelAaTud-48" edge="1">
          <mxGeometry relative="1" as="geometry" />
        </mxCell>
        <mxCell id="4Tztraf-FEUjhelAaTud-49" value="&lt;font face=&quot;Tahoma&quot; style=&quot;font-size: 24px;&quot;&gt;Enter Tranaction ID&lt;/font&gt;" style="rounded=1;whiteSpace=wrap;html=1;" parent="DTBsFPUASoY4-rGtD09z-1" vertex="1">
          <mxGeometry x="650" y="2020" width="140" height="90" as="geometry" />
        </mxCell>
        <mxCell id="4Tztraf-FEUjhelAaTud-60" style="edgeStyle=orthogonalEdgeStyle;rounded=0;orthogonalLoop=1;jettySize=auto;html=1;entryX=0.5;entryY=0;entryDx=0;entryDy=0;" parent="DTBsFPUASoY4-rGtD09z-1" source="4Tztraf-FEUjhelAaTud-48" target="4Tztraf-FEUjhelAaTud-49" edge="1">
          <mxGeometry relative="1" as="geometry" />
        </mxCell>
        <mxCell id="4Tztraf-FEUjhelAaTud-50" value="&lt;font style=&quot;font-size: 24px;&quot;&gt;valid ?&lt;/font&gt;" style="rhombus;whiteSpace=wrap;html=1;" parent="DTBsFPUASoY4-rGtD09z-1" vertex="1">
          <mxGeometry x="655" y="2140" width="130" height="140" as="geometry" />
        </mxCell>
        <mxCell id="4Tztraf-FEUjhelAaTud-61" style="edgeStyle=orthogonalEdgeStyle;rounded=0;orthogonalLoop=1;jettySize=auto;html=1;entryX=0.5;entryY=0;entryDx=0;entryDy=0;" parent="DTBsFPUASoY4-rGtD09z-1" source="4Tztraf-FEUjhelAaTud-49" target="4Tztraf-FEUjhelAaTud-50" edge="1">
          <mxGeometry relative="1" as="geometry" />
        </mxCell>
        <mxCell id="4Tztraf-FEUjhelAaTud-51" value="&lt;font face=&quot;Tahoma&quot; style=&quot;font-size: 24px;&quot;&gt;Appointment confirm&lt;/font&gt;" style="rounded=1;whiteSpace=wrap;html=1;" parent="DTBsFPUASoY4-rGtD09z-1" vertex="1">
          <mxGeometry x="630" y="2330" width="180" height="100" as="geometry" />
        </mxCell>
        <mxCell id="4Tztraf-FEUjhelAaTud-62" style="edgeStyle=orthogonalEdgeStyle;rounded=0;orthogonalLoop=1;jettySize=auto;html=1;entryX=0.5;entryY=0;entryDx=0;entryDy=0;" parent="DTBsFPUASoY4-rGtD09z-1" source="4Tztraf-FEUjhelAaTud-50" target="4Tztraf-FEUjhelAaTud-51" edge="1">
          <mxGeometry relative="1" as="geometry" />
        </mxCell>
        <mxCell id="4Tztraf-FEUjhelAaTud-64" style="edgeStyle=orthogonalEdgeStyle;rounded=0;orthogonalLoop=1;jettySize=auto;html=1;entryX=0.5;entryY=0;entryDx=0;entryDy=0;" parent="DTBsFPUASoY4-rGtD09z-1" source="4Tztraf-FEUjhelAaTud-53" target="4Tztraf-FEUjhelAaTud-27" edge="1">
          <mxGeometry relative="1" as="geometry" />
        </mxCell>
        <mxCell id="4Tztraf-FEUjhelAaTud-53" value="&lt;font style=&quot;font-size: 24px;&quot;&gt;Start Reminder&lt;/font&gt;" style="rounded=1;whiteSpace=wrap;html=1;" parent="DTBsFPUASoY4-rGtD09z-1" vertex="1">
          <mxGeometry x="660" y="2490" width="120" height="60" as="geometry" />
        </mxCell>
        <mxCell id="4Tztraf-FEUjhelAaTud-63" style="edgeStyle=orthogonalEdgeStyle;rounded=0;orthogonalLoop=1;jettySize=auto;html=1;entryX=0.5;entryY=0;entryDx=0;entryDy=0;" parent="DTBsFPUASoY4-rGtD09z-1" source="4Tztraf-FEUjhelAaTud-51" target="4Tztraf-FEUjhelAaTud-53" edge="1">
          <mxGeometry relative="1" as="geometry" />
        </mxCell>
        <mxCell id="4Tztraf-FEUjhelAaTud-54" value="&lt;font style=&quot;font-size: 24px;&quot;&gt;Update Schedulers&lt;/font&gt;" style="rounded=1;whiteSpace=wrap;html=1;" parent="DTBsFPUASoY4-rGtD09z-1" vertex="1">
          <mxGeometry x="960" y="1580" width="200" height="100" as="geometry" />
        </mxCell>
        <mxCell id="4Tztraf-FEUjhelAaTud-55" value="" style="endArrow=none;html=1;rounded=0;entryX=1;entryY=0.5;entryDx=0;entryDy=0;exitX=-0.003;exitY=0.691;exitDx=0;exitDy=0;exitPerimeter=0;" parent="DTBsFPUASoY4-rGtD09z-1" source="4Tztraf-FEUjhelAaTud-30" target="4Tztraf-FEUjhelAaTud-54" edge="1">
          <mxGeometry width="50" height="50" relative="1" as="geometry">
            <mxPoint x="730" y="1850" as="sourcePoint" />
            <mxPoint x="780" y="1800" as="targetPoint" />
          </mxGeometry>
        </mxCell>
        <mxCell id="4Tztraf-FEUjhelAaTud-65" value="YES" style="text;html=1;align=center;verticalAlign=middle;resizable=0;points=[];autosize=1;strokeColor=none;fillColor=none;" parent="DTBsFPUASoY4-rGtD09z-1" vertex="1">
          <mxGeometry x="715" y="828" width="50" height="30" as="geometry" />
        </mxCell>
        <mxCell id="4Tztraf-FEUjhelAaTud-66" value="YES" style="text;html=1;align=center;verticalAlign=middle;resizable=0;points=[];autosize=1;strokeColor=none;fillColor=none;" parent="DTBsFPUASoY4-rGtD09z-1" vertex="1">
          <mxGeometry x="715" y="588" width="50" height="30" as="geometry" />
        </mxCell>
        <mxCell id="4Tztraf-FEUjhelAaTud-67" value="&lt;font style=&quot;font-size: 18px;&quot;&gt;YES&lt;/font&gt;" style="text;html=1;align=center;verticalAlign=middle;resizable=0;points=[];autosize=1;strokeColor=none;fillColor=none;" parent="DTBsFPUASoY4-rGtD09z-1" vertex="1">
          <mxGeometry x="720" y="2270" width="60" height="40" as="geometry" />
        </mxCell>
        <mxCell id="4Tztraf-FEUjhelAaTud-68" value="&lt;font style=&quot;font-size: 18px;&quot;&gt;NO&lt;/font&gt;" style="text;html=1;align=center;verticalAlign=middle;resizable=0;points=[];autosize=1;strokeColor=none;fillColor=none;" parent="DTBsFPUASoY4-rGtD09z-1" vertex="1">
          <mxGeometry x="785" y="2173" width="50" height="40" as="geometry" />
        </mxCell>
        <mxCell id="4Tztraf-FEUjhelAaTud-71" value="" style="strokeWidth=2;html=1;shape=mxgraph.flowchart.annotation_1;align=left;pointerEvents=1;rotation=-180;" parent="DTBsFPUASoY4-rGtD09z-1" vertex="1">
          <mxGeometry x="825" y="2066" width="70" height="142" as="geometry" />
        </mxCell>
        <mxCell id="4Tztraf-FEUjhelAaTud-72" value="" style="endArrow=classic;html=1;rounded=0;exitX=1;exitY=0.5;exitDx=0;exitDy=0;entryX=1;entryY=0;entryDx=0;entryDy=0;entryPerimeter=0;" parent="DTBsFPUASoY4-rGtD09z-1" source="4Tztraf-FEUjhelAaTud-50" target="4Tztraf-FEUjhelAaTud-71" edge="1">
          <mxGeometry width="50" height="50" relative="1" as="geometry">
            <mxPoint x="730" y="1980" as="sourcePoint" />
            <mxPoint x="780" y="1930" as="targetPoint" />
          </mxGeometry>
        </mxCell>
        <mxCell id="4Tztraf-FEUjhelAaTud-73" value="" style="endArrow=classic;html=1;rounded=0;exitX=1;exitY=1;exitDx=0;exitDy=0;exitPerimeter=0;entryX=1;entryY=0.5;entryDx=0;entryDy=0;" parent="DTBsFPUASoY4-rGtD09z-1" source="4Tztraf-FEUjhelAaTud-71" target="4Tztraf-FEUjhelAaTud-49" edge="1">
          <mxGeometry width="50" height="50" relative="1" as="geometry">
            <mxPoint x="730" y="1980" as="sourcePoint" />
            <mxPoint x="780" y="1930" as="targetPoint" />
          </mxGeometry>
        </mxCell>
        <mxCell id="4Tztraf-FEUjhelAaTud-83" style="edgeStyle=orthogonalEdgeStyle;rounded=0;orthogonalLoop=1;jettySize=auto;html=1;" parent="DTBsFPUASoY4-rGtD09z-1" source="4Tztraf-FEUjhelAaTud-74" edge="1">
          <mxGeometry relative="1" as="geometry">
            <mxPoint y="560" as="targetPoint" />
          </mxGeometry>
        </mxCell>
        <mxCell id="4Tztraf-FEUjhelAaTud-74" value="&lt;font face=&quot;Georgia&quot; style=&quot;font-size: 24px;&quot;&gt;Create new account client/Proffesional&lt;/font&gt;" style="rounded=1;whiteSpace=wrap;html=1;" parent="DTBsFPUASoY4-rGtD09z-1" vertex="1">
          <mxGeometry x="250" y="640" width="200" height="170" as="geometry" />
        </mxCell>
        <mxCell id="4Tztraf-FEUjhelAaTud-76" value="NO" style="text;html=1;align=center;verticalAlign=middle;resizable=0;points=[];autosize=1;strokeColor=none;fillColor=none;" parent="DTBsFPUASoY4-rGtD09z-1" vertex="1">
          <mxGeometry x="500" y="678" width="40" height="30" as="geometry" />
        </mxCell>
        <mxCell id="4Tztraf-FEUjhelAaTud-85" value="" style="endArrow=classic;html=1;rounded=0;entryX=0;entryY=0.5;entryDx=0;entryDy=0;" parent="DTBsFPUASoY4-rGtD09z-1" target="4Tztraf-FEUjhelAaTud-1" edge="1">
          <mxGeometry width="50" height="50" relative="1" as="geometry">
            <mxPoint y="560" as="sourcePoint" />
            <mxPoint x="780" y="510" as="targetPoint" />
          </mxGeometry>
        </mxCell>
        <mxCell id="4Tztraf-FEUjhelAaTud-87" value="&lt;font face=&quot;Tahoma&quot; style=&quot;font-size: 48px;&quot;&gt;Bookie FlowChart&lt;/font&gt;" style="text;html=1;strokeColor=none;fillColor=none;align=center;verticalAlign=middle;whiteSpace=wrap;rounded=0;" parent="DTBsFPUASoY4-rGtD09z-1" vertex="1">
          <mxGeometry x="440" width="530" height="100" as="geometry" />
        </mxCell>
        <mxCell id="4Tztraf-FEUjhelAaTud-75" style="edgeStyle=orthogonalEdgeStyle;rounded=0;orthogonalLoop=1;jettySize=auto;html=1;entryX=1;entryY=0.5;entryDx=0;entryDy=0;" parent="DTBsFPUASoY4-rGtD09z-1" source="4Tztraf-FEUjhelAaTud-2" target="4Tztraf-FEUjhelAaTud-74" edge="1">
          <mxGeometry relative="1" as="geometry" />
        </mxCell>
        <mxCell id="jyASal3JFalo635ENOQ0-0" value="&lt;font face=&quot;Lucida Console&quot; style=&quot;font-size: 36px;&quot;&gt;&lt;b&gt;login&lt;/b&gt;&lt;/font&gt;" style="text;html=1;align=center;verticalAlign=middle;resizable=0;points=[];autosize=1;strokeColor=none;fillColor=none;" parent="WIyWlLk6GJQsqaUBKTNV-1" vertex="1">
          <mxGeometry x="1065" y="35" width="140" height="60" as="geometry" />
        </mxCell>
        <mxCell id="jyASal3JFalo635ENOQ0-11" style="edgeStyle=orthogonalEdgeStyle;rounded=0;orthogonalLoop=1;jettySize=auto;html=1;entryX=0.5;entryY=0;entryDx=0;entryDy=0;" parent="WIyWlLk6GJQsqaUBKTNV-1" source="jyASal3JFalo635ENOQ0-1" target="jyASal3JFalo635ENOQ0-2" edge="1">
          <mxGeometry relative="1" as="geometry" />
        </mxCell>
        <mxCell id="jyASal3JFalo635ENOQ0-1" value="START" style="ellipse;whiteSpace=wrap;html=1;" parent="WIyWlLk6GJQsqaUBKTNV-1" vertex="1">
          <mxGeometry x="1085" y="140" width="120" height="80" as="geometry" />
        </mxCell>
        <mxCell id="jyASal3JFalo635ENOQ0-10" style="edgeStyle=orthogonalEdgeStyle;rounded=0;orthogonalLoop=1;jettySize=auto;html=1;entryX=0.5;entryY=0;entryDx=0;entryDy=0;" parent="WIyWlLk6GJQsqaUBKTNV-1" source="jyASal3JFalo635ENOQ0-2" target="jyASal3JFalo635ENOQ0-3" edge="1">
          <mxGeometry relative="1" as="geometry" />
        </mxCell>
        <mxCell id="jyASal3JFalo635ENOQ0-2" value="ENTER USERNAME&lt;br&gt;ENTER PASSWORD" style="shape=parallelogram;perimeter=parallelogramPerimeter;whiteSpace=wrap;html=1;fixedSize=1;" parent="WIyWlLk6GJQsqaUBKTNV-1" vertex="1">
          <mxGeometry x="1072.5" y="308" width="145" height="72" as="geometry" />
        </mxCell>
        <mxCell id="jyASal3JFalo635ENOQ0-9" style="edgeStyle=orthogonalEdgeStyle;rounded=0;orthogonalLoop=1;jettySize=auto;html=1;entryX=0.5;entryY=0;entryDx=0;entryDy=0;" parent="WIyWlLk6GJQsqaUBKTNV-1" source="jyASal3JFalo635ENOQ0-3" target="jyASal3JFalo635ENOQ0-4" edge="1">
          <mxGeometry relative="1" as="geometry" />
        </mxCell>
        <mxCell id="jyASal3JFalo635ENOQ0-3" value="CHECK LOGINS" style="rounded=1;whiteSpace=wrap;html=1;" parent="WIyWlLk6GJQsqaUBKTNV-1" vertex="1">
          <mxGeometry x="1085" y="414" width="120" height="60" as="geometry" />
        </mxCell>
        <mxCell id="jyASal3JFalo635ENOQ0-12" style="edgeStyle=orthogonalEdgeStyle;rounded=0;orthogonalLoop=1;jettySize=auto;html=1;entryX=0.555;entryY=0.017;entryDx=0;entryDy=0;entryPerimeter=0;" parent="WIyWlLk6GJQsqaUBKTNV-1" source="jyASal3JFalo635ENOQ0-4" target="jyASal3JFalo635ENOQ0-5" edge="1">
          <mxGeometry relative="1" as="geometry" />
        </mxCell>
        <mxCell id="jyASal3JFalo635ENOQ0-16" style="edgeStyle=orthogonalEdgeStyle;rounded=0;orthogonalLoop=1;jettySize=auto;html=1;entryX=0;entryY=0.5;entryDx=0;entryDy=0;" parent="WIyWlLk6GJQsqaUBKTNV-1" source="jyASal3JFalo635ENOQ0-4" target="jyASal3JFalo635ENOQ0-7" edge="1">
          <mxGeometry relative="1" as="geometry" />
        </mxCell>
        <mxCell id="jyASal3JFalo635ENOQ0-4" value="IS_CLIENT?" style="rhombus;whiteSpace=wrap;html=1;" parent="WIyWlLk6GJQsqaUBKTNV-1" vertex="1">
          <mxGeometry x="1087.5" y="600" width="112.5" height="102" as="geometry" />
        </mxCell>
        <mxCell id="jyASal3JFalo635ENOQ0-13" style="edgeStyle=orthogonalEdgeStyle;rounded=0;orthogonalLoop=1;jettySize=auto;html=1;" parent="WIyWlLk6GJQsqaUBKTNV-1" source="jyASal3JFalo635ENOQ0-5" target="jyASal3JFalo635ENOQ0-6" edge="1">
          <mxGeometry relative="1" as="geometry" />
        </mxCell>
        <mxCell id="jyASal3JFalo635ENOQ0-5" value="Take to Client" style="rounded=1;whiteSpace=wrap;html=1;" parent="WIyWlLk6GJQsqaUBKTNV-1" vertex="1">
          <mxGeometry x="1072.5" y="840" width="130" height="60" as="geometry" />
        </mxCell>
        <mxCell id="jyASal3JFalo635ENOQ0-6" value="STOP" style="ellipse;whiteSpace=wrap;html=1;" parent="WIyWlLk6GJQsqaUBKTNV-1" vertex="1">
          <mxGeometry x="1077.5" y="1030" width="120" height="80" as="geometry" />
        </mxCell>
        <mxCell id="jyASal3JFalo635ENOQ0-14" value="NO" style="text;html=1;align=center;verticalAlign=middle;resizable=0;points=[];autosize=1;strokeColor=none;fillColor=none;" parent="WIyWlLk6GJQsqaUBKTNV-1" vertex="1">
          <mxGeometry x="1221" y="621" width="40" height="30" as="geometry" />
        </mxCell>
        <mxCell id="jyASal3JFalo635ENOQ0-15" value="YES" style="text;html=1;align=center;verticalAlign=middle;resizable=0;points=[];autosize=1;strokeColor=none;fillColor=none;" parent="WIyWlLk6GJQsqaUBKTNV-1" vertex="1">
          <mxGeometry x="1145" y="738" width="50" height="30" as="geometry" />
        </mxCell>
        <mxCell id="jyASal3JFalo635ENOQ0-7" value="Take to Proffessional" style="rounded=1;whiteSpace=wrap;html=1;" parent="WIyWlLk6GJQsqaUBKTNV-1" vertex="1">
          <mxGeometry x="1280" y="621" width="120" height="60" as="geometry" />
        </mxCell>
        <mxCell id="jyASal3JFalo635ENOQ0-21" value="" style="group" parent="WIyWlLk6GJQsqaUBKTNV-1" vertex="1" connectable="0">
          <mxGeometry x="1340" y="1070" as="geometry" />
        </mxCell>
        <mxCell id="jyASal3JFalo635ENOQ0-20" value="" style="endArrow=classic;html=1;rounded=0;" parent="jyASal3JFalo635ENOQ0-21" target="jyASal3JFalo635ENOQ0-6" edge="1">
          <mxGeometry width="50" height="50" relative="1" as="geometry">
            <mxPoint as="sourcePoint" />
            <mxPoint x="-310" y="-220" as="targetPoint" />
          </mxGeometry>
        </mxCell>
        <mxCell id="jyASal3JFalo635ENOQ0-19" value="" style="endArrow=none;html=1;rounded=0;entryX=0.5;entryY=1;entryDx=0;entryDy=0;" parent="WIyWlLk6GJQsqaUBKTNV-1" target="jyASal3JFalo635ENOQ0-7" edge="1">
          <mxGeometry width="50" height="50" relative="1" as="geometry">
            <mxPoint x="1340" y="1070" as="sourcePoint" />
            <mxPoint x="1030" y="850" as="targetPoint" />
          </mxGeometry>
        </mxCell>
        <mxCell id="jyASal3JFalo635ENOQ0-22" value="&lt;font face=&quot;Tahoma&quot; style=&quot;font-size: 36px;&quot;&gt;&lt;b&gt;REGISTER&lt;/b&gt;&lt;/font&gt;" style="text;html=1;align=center;verticalAlign=middle;resizable=0;points=[];autosize=1;strokeColor=none;fillColor=none;" parent="WIyWlLk6GJQsqaUBKTNV-1" vertex="1">
          <mxGeometry x="1470" y="20" width="210" height="60" as="geometry" />
        </mxCell>
        <mxCell id="jyASal3JFalo635ENOQ0-27" style="edgeStyle=orthogonalEdgeStyle;rounded=0;orthogonalLoop=1;jettySize=auto;html=1;" parent="WIyWlLk6GJQsqaUBKTNV-1" source="jyASal3JFalo635ENOQ0-23" target="jyASal3JFalo635ENOQ0-24" edge="1">
          <mxGeometry relative="1" as="geometry" />
        </mxCell>
        <mxCell id="jyASal3JFalo635ENOQ0-23" value="START" style="ellipse;whiteSpace=wrap;html=1;" parent="WIyWlLk6GJQsqaUBKTNV-1" vertex="1">
          <mxGeometry x="1515" y="140" width="120" height="80" as="geometry" />
        </mxCell>
        <mxCell id="jyASal3JFalo635ENOQ0-26" style="edgeStyle=orthogonalEdgeStyle;rounded=0;orthogonalLoop=1;jettySize=auto;html=1;entryX=0.5;entryY=0;entryDx=0;entryDy=0;" parent="WIyWlLk6GJQsqaUBKTNV-1" source="jyASal3JFalo635ENOQ0-24" target="jyASal3JFalo635ENOQ0-25" edge="1">
          <mxGeometry relative="1" as="geometry" />
        </mxCell>
        <mxCell id="jyASal3JFalo635ENOQ0-31" style="edgeStyle=orthogonalEdgeStyle;rounded=0;orthogonalLoop=1;jettySize=auto;html=1;entryX=0;entryY=0.5;entryDx=0;entryDy=0;" parent="WIyWlLk6GJQsqaUBKTNV-1" source="jyASal3JFalo635ENOQ0-24" target="jyASal3JFalo635ENOQ0-30" edge="1">
          <mxGeometry relative="1" as="geometry" />
        </mxCell>
        <mxCell id="jyASal3JFalo635ENOQ0-24" value="IS_PROFESSIONAL?" style="rhombus;whiteSpace=wrap;html=1;" parent="WIyWlLk6GJQsqaUBKTNV-1" vertex="1">
          <mxGeometry x="1500" y="295" width="145" height="132" as="geometry" />
        </mxCell>
        <mxCell id="jyASal3JFalo635ENOQ0-54" style="edgeStyle=orthogonalEdgeStyle;rounded=0;orthogonalLoop=1;jettySize=auto;html=1;entryX=0.5;entryY=0;entryDx=0;entryDy=0;" parent="WIyWlLk6GJQsqaUBKTNV-1" source="jyASal3JFalo635ENOQ0-25" target="jyASal3JFalo635ENOQ0-53" edge="1">
          <mxGeometry relative="1" as="geometry" />
        </mxCell>
        <mxCell id="jyASal3JFalo635ENOQ0-25" value="ENTER USERNAME&lt;br&gt;ENTER FULLNAMES&lt;br&gt;ENTER PASSWORD&amp;nbsp;&lt;br&gt;SELECT LOCATION&lt;br&gt;ENTER PHONE NO" style="shape=parallelogram;perimeter=parallelogramPerimeter;whiteSpace=wrap;html=1;fixedSize=1;" parent="WIyWlLk6GJQsqaUBKTNV-1" vertex="1">
          <mxGeometry x="1497.5" y="585" width="150" height="90" as="geometry" />
        </mxCell>
        <mxCell id="jyASal3JFalo635ENOQ0-28" value="NO" style="text;html=1;align=center;verticalAlign=middle;resizable=0;points=[];autosize=1;strokeColor=none;fillColor=none;" parent="WIyWlLk6GJQsqaUBKTNV-1" vertex="1">
          <mxGeometry x="1580" y="428" width="40" height="30" as="geometry" />
        </mxCell>
        <mxCell id="jyASal3JFalo635ENOQ0-29" value="YES" style="text;html=1;align=center;verticalAlign=middle;resizable=0;points=[];autosize=1;strokeColor=none;fillColor=none;" parent="WIyWlLk6GJQsqaUBKTNV-1" vertex="1">
          <mxGeometry x="1645" y="328" width="50" height="30" as="geometry" />
        </mxCell>
        <mxCell id="jyASal3JFalo635ENOQ0-50" style="edgeStyle=orthogonalEdgeStyle;rounded=0;orthogonalLoop=1;jettySize=auto;html=1;" parent="WIyWlLk6GJQsqaUBKTNV-1" source="jyASal3JFalo635ENOQ0-30" edge="1">
          <mxGeometry relative="1" as="geometry">
            <mxPoint x="2080" y="640" as="targetPoint" />
          </mxGeometry>
        </mxCell>
        <mxCell id="jyASal3JFalo635ENOQ0-30" value="ENTER SPECIALIZATION&lt;br&gt;&lt;font style=&quot;font-size: 11px;&quot;&gt;ENTER PROFESSIONAL DETAILS&lt;br&gt;&lt;br&gt;&lt;/font&gt;" style="shape=parallelogram;perimeter=parallelogramPerimeter;whiteSpace=wrap;html=1;fixedSize=1;" parent="WIyWlLk6GJQsqaUBKTNV-1" vertex="1">
          <mxGeometry x="1780" y="308" width="230" height="106" as="geometry" />
        </mxCell>
        <mxCell id="jyASal3JFalo635ENOQ0-51" value="" style="endArrow=classic;html=1;rounded=0;entryX=0.907;entryY=0.613;entryDx=0;entryDy=0;entryPerimeter=0;" parent="WIyWlLk6GJQsqaUBKTNV-1" target="jyASal3JFalo635ENOQ0-25" edge="1">
          <mxGeometry width="50" height="50" relative="1" as="geometry">
            <mxPoint x="2080" y="640" as="sourcePoint" />
            <mxPoint x="1630" y="640" as="targetPoint" />
          </mxGeometry>
        </mxCell>
        <mxCell id="jyASal3JFalo635ENOQ0-61" style="edgeStyle=orthogonalEdgeStyle;rounded=0;orthogonalLoop=1;jettySize=auto;html=1;entryX=0.5;entryY=0;entryDx=0;entryDy=0;" parent="WIyWlLk6GJQsqaUBKTNV-1" source="jyASal3JFalo635ENOQ0-53" target="jyASal3JFalo635ENOQ0-56" edge="1">
          <mxGeometry relative="1" as="geometry" />
        </mxCell>
        <mxCell id="jyASal3JFalo635ENOQ0-53" value="REGISTER" style="rounded=1;whiteSpace=wrap;html=1;" parent="WIyWlLk6GJQsqaUBKTNV-1" vertex="1">
          <mxGeometry x="1512.5" y="740" width="120" height="60" as="geometry" />
        </mxCell>
        <mxCell id="jyASal3JFalo635ENOQ0-58" style="edgeStyle=orthogonalEdgeStyle;rounded=0;orthogonalLoop=1;jettySize=auto;html=1;entryX=0.5;entryY=0;entryDx=0;entryDy=0;" parent="WIyWlLk6GJQsqaUBKTNV-1" source="jyASal3JFalo635ENOQ0-56" target="jyASal3JFalo635ENOQ0-57" edge="1">
          <mxGeometry relative="1" as="geometry" />
        </mxCell>
        <mxCell id="jyASal3JFalo635ENOQ0-62" style="edgeStyle=orthogonalEdgeStyle;rounded=0;orthogonalLoop=1;jettySize=auto;html=1;exitX=1;exitY=0.5;exitDx=0;exitDy=0;" parent="WIyWlLk6GJQsqaUBKTNV-1" source="jyASal3JFalo635ENOQ0-56" edge="1">
          <mxGeometry relative="1" as="geometry">
            <mxPoint x="1720" y="770" as="targetPoint" />
          </mxGeometry>
        </mxCell>
        <mxCell id="jyASal3JFalo635ENOQ0-56" value="IS_REGISTRATION&lt;br&gt;SUCCESSFUL?" style="rhombus;whiteSpace=wrap;html=1;" parent="WIyWlLk6GJQsqaUBKTNV-1" vertex="1">
          <mxGeometry x="1508.75" y="848" width="127.5" height="110" as="geometry" />
        </mxCell>
        <mxCell id="jyASal3JFalo635ENOQ0-69" style="edgeStyle=orthogonalEdgeStyle;rounded=0;orthogonalLoop=1;jettySize=auto;html=1;entryX=0.5;entryY=0;entryDx=0;entryDy=0;" parent="WIyWlLk6GJQsqaUBKTNV-1" source="jyASal3JFalo635ENOQ0-57" target="jyASal3JFalo635ENOQ0-68" edge="1">
          <mxGeometry relative="1" as="geometry" />
        </mxCell>
        <mxCell id="jyASal3JFalo635ENOQ0-57" value="GENERATE AND&lt;br&gt;SEND OTP" style="rounded=1;whiteSpace=wrap;html=1;" parent="WIyWlLk6GJQsqaUBKTNV-1" vertex="1">
          <mxGeometry x="1512.5" y="1020" width="120" height="60" as="geometry" />
        </mxCell>
        <mxCell id="jyASal3JFalo635ENOQ0-59" value="YES" style="text;html=1;align=center;verticalAlign=middle;resizable=0;points=[];autosize=1;strokeColor=none;fillColor=none;" parent="WIyWlLk6GJQsqaUBKTNV-1" vertex="1">
          <mxGeometry x="1565" y="978" width="50" height="30" as="geometry" />
        </mxCell>
        <mxCell id="jyASal3JFalo635ENOQ0-60" value="NO" style="text;html=1;align=center;verticalAlign=middle;resizable=0;points=[];autosize=1;strokeColor=none;fillColor=none;" parent="WIyWlLk6GJQsqaUBKTNV-1" vertex="1">
          <mxGeometry x="1647.5" y="880" width="40" height="30" as="geometry" />
        </mxCell>
        <mxCell id="jyASal3JFalo635ENOQ0-63" value="" style="endArrow=classic;html=1;rounded=0;entryX=1;entryY=0.5;entryDx=0;entryDy=0;" parent="WIyWlLk6GJQsqaUBKTNV-1" target="jyASal3JFalo635ENOQ0-53" edge="1">
          <mxGeometry width="50" height="50" relative="1" as="geometry">
            <mxPoint x="1720" y="770" as="sourcePoint" />
            <mxPoint x="1860" y="910" as="targetPoint" />
          </mxGeometry>
        </mxCell>
        <mxCell id="jyASal3JFalo635ENOQ0-67" style="edgeStyle=orthogonalEdgeStyle;rounded=0;orthogonalLoop=1;jettySize=auto;html=1;entryX=0.5;entryY=0;entryDx=0;entryDy=0;" parent="WIyWlLk6GJQsqaUBKTNV-1" source="jyASal3JFalo635ENOQ0-64" target="jyASal3JFalo635ENOQ0-66" edge="1">
          <mxGeometry relative="1" as="geometry" />
        </mxCell>
        <mxCell id="jyASal3JFalo635ENOQ0-64" value="ENTER OTP RECEIVED" style="shape=parallelogram;perimeter=parallelogramPerimeter;whiteSpace=wrap;html=1;fixedSize=1;" parent="WIyWlLk6GJQsqaUBKTNV-1" vertex="1">
          <mxGeometry x="1513" y="1340" width="120" height="60" as="geometry" />
        </mxCell>
        <mxCell id="jyASal3JFalo635ENOQ0-85" style="edgeStyle=orthogonalEdgeStyle;rounded=0;orthogonalLoop=1;jettySize=auto;html=1;entryX=0.5;entryY=0;entryDx=0;entryDy=0;" parent="WIyWlLk6GJQsqaUBKTNV-1" source="jyASal3JFalo635ENOQ0-66" target="jyASal3JFalo635ENOQ0-80" edge="1">
          <mxGeometry relative="1" as="geometry" />
        </mxCell>
        <mxCell id="jyASal3JFalo635ENOQ0-66" value="VERIFY OTP" style="rounded=1;whiteSpace=wrap;html=1;" parent="WIyWlLk6GJQsqaUBKTNV-1" vertex="1">
          <mxGeometry x="1513" y="1480" width="120" height="60" as="geometry" />
        </mxCell>
        <mxCell id="jyASal3JFalo635ENOQ0-70" style="edgeStyle=orthogonalEdgeStyle;rounded=0;orthogonalLoop=1;jettySize=auto;html=1;entryX=0.5;entryY=0;entryDx=0;entryDy=0;" parent="WIyWlLk6GJQsqaUBKTNV-1" source="jyASal3JFalo635ENOQ0-68" target="jyASal3JFalo635ENOQ0-64" edge="1">
          <mxGeometry relative="1" as="geometry" />
        </mxCell>
        <mxCell id="jyASal3JFalo635ENOQ0-68" value="RECEIVED &lt;br&gt;OTP?" style="rhombus;whiteSpace=wrap;html=1;" parent="WIyWlLk6GJQsqaUBKTNV-1" vertex="1">
          <mxGeometry x="1523" y="1144" width="97" height="110" as="geometry" />
        </mxCell>
        <mxCell id="jyASal3JFalo635ENOQ0-71" value="YES" style="text;html=1;align=center;verticalAlign=middle;resizable=0;points=[];autosize=1;strokeColor=none;fillColor=none;" parent="WIyWlLk6GJQsqaUBKTNV-1" vertex="1">
          <mxGeometry x="1565" y="1240" width="50" height="30" as="geometry" />
        </mxCell>
        <mxCell id="jyASal3JFalo635ENOQ0-72" value="NO" style="text;html=1;align=center;verticalAlign=middle;resizable=0;points=[];autosize=1;strokeColor=none;fillColor=none;" parent="WIyWlLk6GJQsqaUBKTNV-1" vertex="1">
          <mxGeometry x="1630" y="1169" width="40" height="30" as="geometry" />
        </mxCell>
        <mxCell id="jyASal3JFalo635ENOQ0-73" value="" style="shape=partialRectangle;whiteSpace=wrap;html=1;bottom=1;right=1;left=1;top=0;fillColor=none;routingCenterX=-0.5;rotation=-90;" parent="WIyWlLk6GJQsqaUBKTNV-1" vertex="1">
          <mxGeometry x="1641" y="1097.75" width="149.25" height="53.75" as="geometry" />
        </mxCell>
        <mxCell id="jyASal3JFalo635ENOQ0-75" value="" style="endArrow=classic;html=1;rounded=0;exitX=1;exitY=0.5;exitDx=0;exitDy=0;entryX=0;entryY=0;entryDx=0;entryDy=0;" parent="WIyWlLk6GJQsqaUBKTNV-1" source="jyASal3JFalo635ENOQ0-68" target="jyASal3JFalo635ENOQ0-73" edge="1">
          <mxGeometry width="50" height="50" relative="1" as="geometry">
            <mxPoint x="1670" y="1190" as="sourcePoint" />
            <mxPoint x="1720" y="1140" as="targetPoint" />
          </mxGeometry>
        </mxCell>
        <mxCell id="jyASal3JFalo635ENOQ0-76" value="" style="endArrow=classic;html=1;rounded=0;entryX=1;entryY=0.5;entryDx=0;entryDy=0;exitX=1;exitY=0;exitDx=0;exitDy=0;" parent="WIyWlLk6GJQsqaUBKTNV-1" source="jyASal3JFalo635ENOQ0-73" target="jyASal3JFalo635ENOQ0-57" edge="1">
          <mxGeometry width="50" height="50" relative="1" as="geometry">
            <mxPoint x="1670" y="1190" as="sourcePoint" />
            <mxPoint x="1720" y="1140" as="targetPoint" />
          </mxGeometry>
        </mxCell>
        <mxCell id="jyASal3JFalo635ENOQ0-79" value="RESEND OTP" style="rounded=1;whiteSpace=wrap;html=1;" parent="WIyWlLk6GJQsqaUBKTNV-1" vertex="1">
          <mxGeometry x="1682.5" y="1090" width="120" height="61.5" as="geometry" />
        </mxCell>
        <mxCell id="jyASal3JFalo635ENOQ0-84" style="edgeStyle=orthogonalEdgeStyle;rounded=0;orthogonalLoop=1;jettySize=auto;html=1;entryX=0.5;entryY=0;entryDx=0;entryDy=0;" parent="WIyWlLk6GJQsqaUBKTNV-1" source="jyASal3JFalo635ENOQ0-80" target="jyASal3JFalo635ENOQ0-81" edge="1">
          <mxGeometry relative="1" as="geometry" />
        </mxCell>
        <mxCell id="jyASal3JFalo635ENOQ0-80" value="IS OTP VALID?" style="rhombus;whiteSpace=wrap;html=1;" parent="WIyWlLk6GJQsqaUBKTNV-1" vertex="1">
          <mxGeometry x="1489" y="1590" width="168" height="140" as="geometry" />
        </mxCell>
        <mxCell id="jyASal3JFalo635ENOQ0-83" style="edgeStyle=orthogonalEdgeStyle;rounded=0;orthogonalLoop=1;jettySize=auto;html=1;" parent="WIyWlLk6GJQsqaUBKTNV-1" source="jyASal3JFalo635ENOQ0-81" target="jyASal3JFalo635ENOQ0-82" edge="1">
          <mxGeometry relative="1" as="geometry" />
        </mxCell>
        <mxCell id="jyASal3JFalo635ENOQ0-81" value="LOGIN" style="rounded=1;whiteSpace=wrap;html=1;" parent="WIyWlLk6GJQsqaUBKTNV-1" vertex="1">
          <mxGeometry x="1514" y="1850" width="120" height="60" as="geometry" />
        </mxCell>
        <mxCell id="jyASal3JFalo635ENOQ0-82" value="STOP" style="ellipse;whiteSpace=wrap;html=1;" parent="WIyWlLk6GJQsqaUBKTNV-1" vertex="1">
          <mxGeometry x="1515" y="2050" width="120" height="80" as="geometry" />
        </mxCell>
        <mxCell id="jyASal3JFalo635ENOQ0-86" value="YES" style="text;html=1;align=center;verticalAlign=middle;resizable=0;points=[];autosize=1;strokeColor=none;fillColor=none;" parent="WIyWlLk6GJQsqaUBKTNV-1" vertex="1">
          <mxGeometry x="1575" y="1768" width="50" height="30" as="geometry" />
        </mxCell>
        <mxCell id="jyASal3JFalo635ENOQ0-87" value="NO" style="text;html=1;align=center;verticalAlign=middle;resizable=0;points=[];autosize=1;strokeColor=none;fillColor=none;" parent="WIyWlLk6GJQsqaUBKTNV-1" vertex="1">
          <mxGeometry x="1670" y="1618" width="40" height="30" as="geometry" />
        </mxCell>
        <mxCell id="jyASal3JFalo635ENOQ0-88" value="" style="shape=partialRectangle;whiteSpace=wrap;html=1;bottom=1;right=1;left=1;top=0;fillColor=none;routingCenterX=-0.5;rotation=-90;" parent="WIyWlLk6GJQsqaUBKTNV-1" vertex="1">
          <mxGeometry x="1542.5" y="1427.5" width="380" height="85" as="geometry" />
        </mxCell>
        <mxCell id="jyASal3JFalo635ENOQ0-89" value="" style="endArrow=classic;html=1;rounded=0;exitX=1;exitY=0.5;exitDx=0;exitDy=0;entryX=0;entryY=0;entryDx=0;entryDy=0;" parent="WIyWlLk6GJQsqaUBKTNV-1" source="jyASal3JFalo635ENOQ0-80" target="jyASal3JFalo635ENOQ0-88" edge="1">
          <mxGeometry width="50" height="50" relative="1" as="geometry">
            <mxPoint x="1680" y="1640" as="sourcePoint" />
            <mxPoint x="1730" y="1590" as="targetPoint" />
          </mxGeometry>
        </mxCell>
        <mxCell id="jyASal3JFalo635ENOQ0-90" value="" style="endArrow=classic;html=1;rounded=0;exitX=1;exitY=0;exitDx=0;exitDy=0;" parent="WIyWlLk6GJQsqaUBKTNV-1" source="jyASal3JFalo635ENOQ0-88" edge="1">
          <mxGeometry width="50" height="50" relative="1" as="geometry">
            <mxPoint x="1680" y="1280" as="sourcePoint" />
            <mxPoint x="1570" y="1280" as="targetPoint" />
          </mxGeometry>
        </mxCell>
        <mxCell id="jyASal3JFalo635ENOQ0-91" value="IS LOGIN&lt;br&gt;VALID?" style="rhombus;whiteSpace=wrap;html=1;" parent="WIyWlLk6GJQsqaUBKTNV-1" vertex="1">
          <mxGeometry x="1105" y="490" width="80" height="80" as="geometry" />
        </mxCell>
        <mxCell id="jyASal3JFalo635ENOQ0-92" value="YES" style="text;html=1;align=center;verticalAlign=middle;resizable=0;points=[];autosize=1;strokeColor=none;fillColor=none;" parent="WIyWlLk6GJQsqaUBKTNV-1" vertex="1">
          <mxGeometry x="1135" y="558" width="50" height="30" as="geometry" />
        </mxCell>
        <mxCell id="jyASal3JFalo635ENOQ0-93" value="NO" style="text;html=1;align=center;verticalAlign=middle;resizable=0;points=[];autosize=1;strokeColor=none;fillColor=none;" parent="WIyWlLk6GJQsqaUBKTNV-1" vertex="1">
          <mxGeometry x="1180" y="508" width="40" height="30" as="geometry" />
        </mxCell>
        <mxCell id="jyASal3JFalo635ENOQ0-94" value="" style="shape=partialRectangle;whiteSpace=wrap;html=1;bottom=1;right=1;left=1;top=0;fillColor=none;routingCenterX=-0.5;rotation=-90;" parent="WIyWlLk6GJQsqaUBKTNV-1" vertex="1">
          <mxGeometry x="1126" y="356" width="270" height="78" as="geometry" />
        </mxCell>
        <mxCell id="jyASal3JFalo635ENOQ0-95" value="" style="endArrow=classic;html=1;rounded=0;exitX=1;exitY=0.5;exitDx=0;exitDy=0;entryX=0;entryY=0;entryDx=0;entryDy=0;" parent="WIyWlLk6GJQsqaUBKTNV-1" source="jyASal3JFalo635ENOQ0-91" target="jyASal3JFalo635ENOQ0-94" edge="1">
          <mxGeometry width="50" height="50" relative="1" as="geometry">
            <mxPoint x="1190" y="530" as="sourcePoint" />
            <mxPoint x="1230" y="400" as="targetPoint" />
          </mxGeometry>
        </mxCell>
        <mxCell id="jyASal3JFalo635ENOQ0-96" value="" style="endArrow=classic;html=1;rounded=0;exitX=1;exitY=0;exitDx=0;exitDy=0;" parent="WIyWlLk6GJQsqaUBKTNV-1" edge="1">
          <mxGeometry width="50" height="50" relative="1" as="geometry">
            <mxPoint x="1217.5" y="260.00000000000045" as="sourcePoint" />
            <mxPoint x="1145.5" y="260" as="targetPoint" />
          </mxGeometry>
        </mxCell>
      </root>
    </mxGraphModel>
  </diagram>
</mxfile>
